<svg data-v-423bf9ae="" xmlns="http://www.w3.org/2000/svg" viewBox="0 0 433 90" class="iconLeftSlogan"><!----><!----><!----><g data-v-423bf9ae="" id="d07b18cd-ca33-45c7-8ec4-9b499a9beb45" fill="#000000" transform="matrix(5.808325309113267,0,0,5.808325309113267,92.4583774324939,-16.20522739085599)"><path d="M6.85 10.75L6.85 10.75Q6.85 10.72 6.90 10.72L6.90 10.72L6.90 10.72Q6.94 10.72 6.98 10.75L6.98 10.75L6.98 10.75Q7.01 10.77 7.01 10.78L7.01 10.78L7.01 10.78Q6.87 11.84 6.87 12.73L6.87 12.73L6.87 12.73Q6.87 12.84 6.83 12.89L6.83 12.89L6.83 12.89Q6.79 12.94 6.66 12.94L6.66 12.94L0.59 12.94L0.59 12.94Q0.55 12.94 0.55 12.85L0.55 12.85L0.55 12.85Q0.55 12.77 0.59 12.77L0.59 12.77L0.59 12.77Q1.06 12.77 1.28 12.70L1.28 12.70L1.28 12.70Q1.50 12.63 1.57 12.43L1.57 12.43L1.57 12.43Q1.65 12.22 1.65 11.80L1.65 11.80L1.65 5.32L1.65 5.32Q1.65 4.90 1.57 4.70L1.57 4.70L1.57 4.70Q1.50 4.51 1.27 4.43L1.27 4.43L1.27 4.43Q1.05 4.35 0.59 4.35L0.59 4.35L0.59 4.35Q0.55 4.35 0.55 4.27L0.55 4.27L0.55 4.27Q0.55 4.19 0.59 4.19L0.59 4.19L6.41 4.19L6.41 4.19Q6.55 4.19 6.55 4.31L6.55 4.31L6.58 6.13L6.58 6.13Q6.58 6.16 6.50 6.17L6.50 6.17L6.50 6.17Q6.43 6.19 6.41 6.15L6.41 6.15L6.41 6.15Q6.08 4.55 4.47 4.55L4.47 4.55L3.91 4.55L3.91 4.55Q3.40 4.55 3.19 4.73L3.19 4.73L3.19 4.73Q2.98 4.91 2.98 5.35L2.98 5.35L2.98 8.20L4.33 8.20L4.33 8.20Q5.87 8.20 5.87 7.17L5.87 7.17L5.87 7.17Q5.87 7.13 5.94 7.13L5.94 7.13L5.94 7.13Q6.02 7.13 6.02 7.17L6.02 7.17L6.01 8.39L6.02 9.04L6.02 9.04Q6.05 9.49 6.05 9.77L6.05 9.77L6.05 9.77Q6.05 9.80 5.96 9.80L5.96 9.80L5.96 9.80Q5.88 9.80 5.88 9.77L5.88 9.77L5.88 9.77Q5.88 8.57 4.31 8.57L4.31 8.57L2.98 8.57L2.98 11.75L2.98 11.75Q2.98 12.21 3.16 12.39L3.16 12.39L3.16 12.39Q3.33 12.57 3.78 12.57L3.78 12.57L4.47 12.57L4.47 12.57Q6.34 12.57 6.85 10.75L6.85 10.75ZM8.18 12.94L8.18 12.94Q8.13 12.94 8.13 12.85L8.13 12.85L8.13 12.85Q8.13 12.77 8.18 12.77L8.18 12.77L8.18 12.77Q8.64 12.77 8.81 12.56L8.81 12.56L8.81 12.56Q8.97 12.36 8.97 11.80L8.97 11.80L8.97 4.65L8.97 4.65Q8.97 4.16 8.88 3.94L8.88 3.94L8.88 3.94Q8.79 3.72 8.55 3.72L8.55 3.72L8.55 3.72Q8.34 3.72 7.99 3.89L7.99 3.89L7.98 3.89L7.98 3.89Q7.92 3.89 7.90 3.82L7.90 3.82L7.90 3.82Q7.87 3.75 7.90 3.72L7.90 3.72L9.87 2.80L9.93 2.79L9.93 2.79Q9.98 2.79 10.06 2.84L10.06 2.84L10.06 2.84Q10.14 2.90 10.14 2.94L10.14 2.94L10.14 11.80L10.14 11.80Q10.14 12.38 10.29 12.57L10.29 12.57L10.29 12.57Q10.44 12.77 10.92 12.77L10.92 12.77L10.92 12.77Q10.96 12.77 10.96 12.85L10.96 12.85L10.96 12.85Q10.96 12.94 10.92 12.94L10.92 12.94L10.92 12.94Q10.58 12.94 10.37 12.92L10.37 12.92L9.55 12.91L8.74 12.92L8.74 12.92Q8.53 12.94 8.18 12.94L8.18 12.94ZM19.56 8.02L19.56 8.02Q20.71 8.15 21.39 8.79L21.39 8.79L21.39 8.79Q22.08 9.44 22.08 10.39L22.08 10.39L22.08 10.39Q22.08 11.12 21.68 11.71L21.68 11.71L21.68 11.71Q21.28 12.31 20.57 12.65L20.57 12.65L20.57 12.65Q19.87 12.99 19.00 12.99L19.00 12.99L19.00 12.99Q18.59 12.99 18.06 12.95L18.06 12.95L18.06 12.95Q17.88 12.94 17.60 12.92L17.60 12.92L17.60 12.92Q17.32 12.91 16.97 12.91L16.97 12.91L15.96 12.92L15.96 12.92Q15.69 12.94 15.23 12.94L15.23 12.94L15.23 12.94Q15.19 12.94 15.19 12.85L15.19 12.85L15.19 12.85Q15.19 12.77 15.23 12.77L15.23 12.77L15.23 12.77Q15.68 12.77 15.90 12.69L15.90 12.69L15.90 12.69Q16.13 12.61 16.22 12.42L16.22 12.42L16.22 12.42Q16.31 12.22 16.31 11.80L16.31 11.80L16.31 5.32L16.31 5.32Q16.31 4.91 16.22 4.71L16.22 4.71L16.22 4.71Q16.13 4.51 15.91 4.43L15.91 4.43L15.91 4.43Q15.69 4.35 15.25 4.35L15.25 4.35L15.25 4.35Q15.22 4.35 15.22 4.27L15.22 4.27L15.22 4.27Q15.22 4.19 15.25 4.19L15.25 4.19L15.97 4.20L15.97 4.20Q16.59 4.23 16.97 4.23L16.97 4.23L16.97 4.23Q17.36 4.23 17.79 4.19L17.79 4.19L17.79 4.19Q17.95 4.17 18.16 4.16L18.16 4.16L18.16 4.16Q18.38 4.14 18.66 4.14L18.66 4.14L18.66 4.14Q19.91 4.14 20.57 4.63L20.57 4.63L20.57 4.63Q21.24 5.11 21.24 5.96L21.24 5.96L21.24 5.96Q21.24 6.62 20.80 7.17L20.80 7.17L20.80 7.17Q20.36 7.71 19.56 8.02L19.56 8.02ZM18.42 4.42L18.42 4.42Q17.98 4.42 17.82 4.61L17.82 4.61L17.82 4.61Q17.65 4.79 17.65 5.35L17.65 5.35L17.65 8.01L18.24 8.02L18.24 8.02Q19.07 8.02 19.49 7.48L19.49 7.48L19.49 7.48Q19.91 6.94 19.91 6.09L19.91 6.09L19.91 6.09Q19.91 5.29 19.53 4.86L19.53 4.86L19.53 4.86Q19.15 4.42 18.42 4.42L18.42 4.42ZM18.77 12.67L18.77 12.67Q20.66 12.67 20.66 10.72L20.66 10.72L20.66 10.72Q20.66 9.66 20.11 9.02L20.11 9.02L20.11 9.02Q19.56 8.37 18.49 8.37L18.49 8.37L18.49 8.37Q17.99 8.37 17.65 8.40L17.65 8.40L17.65 11.80L17.65 11.80Q17.65 12.12 17.74 12.31L17.74 12.31L17.74 12.31Q17.82 12.49 18.06 12.58L18.06 12.58L18.06 12.58Q18.30 12.67 18.77 12.67L18.77 12.67ZM28.63 12.18L28.66 12.18L28.66 12.18Q28.71 12.18 28.73 12.24L28.73 12.24L28.73 12.24Q28.74 12.31 28.69 12.33L28.69 12.33L27.24 13.02L27.24 13.02Q27.19 13.05 27.12 13.05L27.12 13.05L27.12 13.05Q26.92 13.05 26.74 12.82L26.74 12.82L26.74 12.82Q26.56 12.60 26.49 12.22L26.49 12.22L25.76 12.61L25.76 12.61Q24.95 13.03 24.37 13.03L24.37 13.03L24.37 13.03Q23.93 13.03 23.68 12.80L23.68 12.80L23.68 12.80Q23.44 12.57 23.44 12.17L23.44 12.17L23.44 12.17Q23.44 11.73 23.74 11.52L23.74 11.52L23.74 11.52Q24.05 11.30 24.92 11.00L24.92 11.00L26.45 10.49L26.45 9.37L26.45 9.37Q26.45 8.51 26.25 8.11L26.25 8.11L26.25 8.11Q26.05 7.71 25.66 7.71L25.66 7.71L25.66 7.71Q24.91 7.71 24.79 8.82L24.79 8.82L24.79 8.82Q24.72 9.52 24.08 9.52L24.08 9.52L24.08 9.52Q23.48 9.52 23.48 9.00L23.48 9.00L23.48 9.00Q23.48 8.64 23.93 8.27L23.93 8.27L23.93 8.27Q24.39 7.90 25.03 7.65L25.03 7.65L25.03 7.65Q25.68 7.41 26.18 7.41L26.18 7.41L26.18 7.41Q26.81 7.41 27.20 7.79L27.20 7.79L27.20 7.79Q27.58 8.18 27.58 8.95L27.58 8.95L27.58 11.42L27.58 11.42Q27.58 11.86 27.72 12.08L27.72 12.08L27.72 12.08Q27.86 12.31 28.13 12.31L28.13 12.31L28.13 12.31Q28.34 12.31 28.63 12.18L28.63 12.18ZM26.04 12.22L26.46 12.00L26.46 12.00Q26.45 11.94 26.45 11.79L26.45 11.79L26.45 10.71L25.45 11.07L25.45 11.07Q25.09 11.21 24.93 11.38L24.93 11.38L24.93 11.38Q24.78 11.54 24.78 11.77L24.78 11.77L24.78 11.77Q24.78 12.07 24.95 12.24L24.95 12.24L24.95 12.24Q25.12 12.40 25.38 12.40L25.38 12.40L25.38 12.40Q25.68 12.40 26.04 12.22L26.04 12.22ZM32.76 7.39L32.76 7.39Q33.08 7.39 33.38 7.60L33.38 7.60L33.38 7.60Q33.67 7.81 33.67 8.11L33.67 8.11L33.67 8.11Q33.67 8.37 33.51 8.54L33.51 8.54L33.51 8.54Q33.35 8.71 33.07 8.71L33.07 8.71L33.07 8.71Q32.89 8.71 32.77 8.63L32.77 8.63L32.77 8.63Q32.65 8.55 32.52 8.41L32.52 8.41L32.52 8.41Q32.40 8.29 32.30 8.22L32.30 8.22L32.30 8.22Q32.20 8.16 32.06 8.16L32.06 8.16L32.06 8.16Q31.91 8.16 31.73 8.28L31.73 8.28L31.73 8.28Q31.56 8.40 31.19 8.78L31.19 8.78L31.19 11.80L31.19 11.80Q31.19 12.19 31.30 12.40L31.30 12.40L31.30 12.40Q31.42 12.60 31.68 12.68L31.68 12.68L31.68 12.68Q31.95 12.77 32.47 12.77L32.47 12.77L32.47 12.77Q32.52 12.77 32.52 12.85L32.52 12.85L32.52 12.85Q32.52 12.94 32.47 12.94L32.47 12.94L32.47 12.94Q32.00 12.94 31.72 12.92L31.72 12.92L30.62 12.91L29.81 12.92L29.81 12.92Q29.61 12.94 29.26 12.94L29.26 12.94L29.26 12.94Q29.22 12.94 29.22 12.85L29.22 12.85L29.22 12.85Q29.22 12.77 29.26 12.77L29.26 12.77L29.26 12.77Q29.74 12.77 29.89 12.57L29.89 12.57L29.89 12.57Q30.04 12.38 30.04 11.80L30.04 11.80L30.04 9.13L30.04 9.13Q30.04 8.68 29.94 8.47L29.94 8.47L29.94 8.47Q29.83 8.26 29.60 8.26L29.60 8.26L29.60 8.26Q29.39 8.26 28.90 8.47L28.90 8.47L28.88 8.47L28.88 8.47Q28.83 8.47 28.80 8.40L28.80 8.40L28.80 8.40Q28.77 8.33 28.81 8.32L28.81 8.32L30.65 7.42L30.65 7.42Q30.73 7.39 30.74 7.39L30.74 7.39L30.74 7.39Q30.88 7.39 31.02 7.69L31.02 7.69L31.02 7.69Q31.16 7.99 31.19 8.48L31.19 8.48L31.19 8.48Q31.74 7.87 32.10 7.63L32.10 7.63L32.10 7.63Q32.47 7.39 32.76 7.39L32.76 7.39ZM38.35 7.35L38.35 7.35Q38.96 7.35 39.49 7.64L39.49 7.64L39.49 7.64Q40.01 7.94 40.33 8.53L40.33 8.53L40.33 8.53Q40.64 9.11 40.64 9.95L40.64 9.95L40.64 9.95Q40.64 10.96 40.21 11.68L40.21 11.68L40.21 11.68Q39.79 12.39 39.09 12.75L39.09 12.75L39.09 12.75Q38.39 13.12 37.60 13.12L37.60 13.12L37.60 13.12Q36.51 13.12 35.64 12.47L35.64 12.47L34.45 13.02L34.43 13.02L34.43 13.02Q34.37 13.02 34.36 12.97L34.36 12.97L34.36 12.97Q34.34 12.92 34.38 12.89L34.38 12.89L34.38 12.89Q34.76 12.66 34.94 12.34L34.94 12.34L34.94 12.34Q35.11 12.03 35.11 11.49L35.11 11.49L35.11 4.65L35.11 4.65Q35.11 4.16 35.01 3.94L35.01 3.94L35.01 3.94Q34.92 3.72 34.68 3.72L34.68 3.72L34.68 3.72Q34.51 3.72 34.13 3.89L34.13 3.89L34.12 3.89L34.12 3.89Q34.06 3.89 34.03 3.82L34.03 3.82L34.03 3.82Q34.01 3.75 34.03 3.72L34.03 3.72L35.98 2.80L36.05 2.79L36.05 2.79Q36.11 2.79 36.18 2.84L36.18 2.84L36.18 2.84Q36.25 2.90 36.25 2.94L36.25 2.94L36.25 8.39L36.25 8.39Q36.71 7.91 37.21 7.63L37.21 7.63L37.21 7.63Q37.72 7.35 38.35 7.35L38.35 7.35ZM37.97 12.84L37.97 12.84Q38.65 12.84 39.02 12.22L39.02 12.22L39.02 12.22Q39.38 11.61 39.38 10.47L39.38 10.47L39.38 10.47Q39.38 9.24 38.94 8.62L38.94 8.62L38.94 8.62Q38.50 7.99 37.76 7.99L37.76 7.99L37.76 7.99Q37.04 7.99 36.25 8.64L36.25 8.64L36.25 10.78L36.25 10.78Q36.25 11.51 36.52 11.97L36.52 11.97L36.52 11.97Q36.79 12.43 37.19 12.63L37.19 12.63L37.19 12.63Q37.59 12.84 37.97 12.84L37.97 12.84ZM46.41 12.07L46.44 12.05L46.44 12.05Q46.47 12.05 46.50 12.11L46.50 12.11L46.50 12.11Q46.54 12.17 46.51 12.19L46.51 12.19L46.51 12.19Q46.00 12.67 45.49 12.89L45.49 12.89L45.49 12.89Q44.97 13.10 44.35 13.10L44.35 13.10L44.35 13.10Q43.48 13.10 42.86 12.73L42.86 12.73L42.86 12.73Q42.24 12.36 41.91 11.74L41.91 11.74L41.91 11.74Q41.58 11.12 41.58 10.40L41.58 10.40L41.58 10.40Q41.58 9.58 41.99 8.89L41.99 8.89L41.99 8.89Q42.41 8.20 43.13 7.80L43.13 7.80L43.13 7.80Q43.85 7.41 44.72 7.41L44.72 7.41L44.72 7.41Q45.54 7.41 45.99 7.78L45.99 7.78L45.99 7.78Q46.44 8.15 46.44 8.79L46.44 8.79L46.44 8.79Q46.44 9.17 46.28 9.17L46.28 9.17L45.51 9.17L42.88 9.20L42.88 9.20Q42.84 9.49 42.84 9.83L42.84 9.83L42.84 9.83Q42.84 11.05 43.41 11.77L43.41 11.77L43.41 11.77Q43.97 12.49 44.98 12.49L44.98 12.49L44.98 12.49Q45.35 12.49 45.72 12.38L45.72 12.38L45.72 12.38Q46.10 12.28 46.41 12.07L46.41 12.07ZM44.21 7.69L44.21 7.69Q43.75 7.69 43.41 8.02L43.41 8.02L43.41 8.02Q43.08 8.36 42.94 8.95L42.94 8.95L45.12 8.90L45.12 8.90Q45.09 8.33 44.87 8.01L44.87 8.01L44.87 8.01Q44.65 7.69 44.21 7.69L44.21 7.69ZM51.00 7.39L51.00 7.39Q51.32 7.39 51.62 7.60L51.62 7.60L51.62 7.60Q51.91 7.81 51.91 8.11L51.91 8.11L51.91 8.11Q51.91 8.37 51.75 8.54L51.75 8.54L51.75 8.54Q51.59 8.71 51.31 8.71L51.31 8.71L51.31 8.71Q51.13 8.71 51.01 8.63L51.01 8.63L51.01 8.63Q50.89 8.55 50.76 8.41L50.76 8.41L50.76 8.41Q50.64 8.29 50.54 8.22L50.54 8.22L50.54 8.22Q50.44 8.16 50.30 8.16L50.30 8.16L50.30 8.16Q50.15 8.16 49.97 8.28L49.97 8.28L49.97 8.28Q49.80 8.40 49.43 8.78L49.43 8.78L49.43 11.80L49.43 11.80Q49.43 12.19 49.55 12.40L49.55 12.40L49.55 12.40Q49.66 12.60 49.92 12.68L49.92 12.68L49.92 12.68Q50.19 12.77 50.71 12.77L50.71 12.77L50.71 12.77Q50.76 12.77 50.76 12.85L50.76 12.85L50.76 12.85Q50.76 12.94 50.71 12.94L50.71 12.94L50.71 12.94Q50.25 12.94 49.97 12.92L49.97 12.92L48.86 12.91L48.05 12.92L48.05 12.92Q47.85 12.94 47.50 12.94L47.50 12.94L47.50 12.94Q47.46 12.94 47.46 12.85L47.46 12.85L47.46 12.85Q47.46 12.77 47.50 12.77L47.50 12.77L47.50 12.77Q47.98 12.77 48.13 12.57L48.13 12.57L48.13 12.57Q48.29 12.38 48.29 11.80L48.29 11.80L48.29 9.13L48.29 9.13Q48.29 8.68 48.18 8.47L48.18 8.47L48.18 8.47Q48.08 8.26 47.84 8.26L47.84 8.26L47.84 8.26Q47.63 8.26 47.14 8.47L47.14 8.47L47.12 8.47L47.12 8.47Q47.07 8.47 47.04 8.40L47.04 8.40L47.04 8.40Q47.01 8.33 47.05 8.32L47.05 8.32L48.89 7.42L48.89 7.42Q48.97 7.39 48.99 7.39L48.99 7.39L48.99 7.39Q49.13 7.39 49.27 7.69L49.27 7.69L49.27 7.69Q49.41 7.99 49.43 8.48L49.43 8.48L49.43 8.48Q49.98 7.87 50.34 7.63L50.34 7.63L50.34 7.63Q50.71 7.39 51.00 7.39L51.00 7.39ZM55.45 13.12L55.45 13.12Q54.61 13.12 53.97 12.72L53.97 12.72L53.97 12.72Q53.33 12.32 52.98 11.64L52.98 11.64L52.98 11.64Q52.63 10.96 52.63 10.16L52.63 10.16L52.63 10.16Q52.63 9.25 53.08 8.62L53.08 8.62L53.08 8.62Q53.54 7.98 54.24 7.67L54.24 7.67L54.24 7.67Q54.95 7.35 55.69 7.35L55.69 7.35L55.69 7.35Q56.55 7.35 57.18 7.76L57.18 7.76L57.18 7.76Q57.82 8.16 58.16 8.83L58.16 8.83L58.16 8.83Q58.49 9.49 58.49 10.25L58.49 10.25L58.49 10.25Q58.49 11.09 58.08 11.75L58.08 11.75L58.08 11.75Q57.67 12.40 56.97 12.76L56.97 12.76L56.97 12.76Q56.27 13.12 55.45 13.12L55.45 13.12ZM55.87 12.84L55.87 12.84Q56.49 12.84 56.82 12.29L56.82 12.29L56.82 12.29Q57.15 11.75 57.15 10.70L57.15 10.70L57.15 10.70Q57.15 9.76 56.89 9.06L56.89 9.06L56.89 9.06Q56.63 8.36 56.19 7.99L56.19 7.99L56.19 7.99Q55.75 7.63 55.23 7.63L55.23 7.63L55.23 7.63Q54.60 7.63 54.28 8.15L54.28 8.15L54.28 8.15Q53.96 8.67 53.96 9.67L53.96 9.67L53.96 9.67Q53.96 10.58 54.20 11.30L54.20 11.30L54.20 11.30Q54.45 12.03 54.89 12.43L54.89 12.43L54.89 12.43Q55.33 12.84 55.87 12.84L55.87 12.84Z"></path></g><!----><g data-v-423bf9ae="" id="418bf2c4-4518-4dfc-94b2-ea00a6a5b37b" transform="matrix(1.5000136376667141,0,0,1.5000136376667141,-9.209529987295241,-3.0010707427050107)" stroke="none" fill="#754220"><path d="M57.2 59a1.36 1.36 0 0 0-.6-1 16.8 16.8 0 0 0-1.88-1 7.17 7.17 0 0 1-2.5-1.59 28.69 28.69 0 0 1-2.49-4.53l.05-.07a3.21 3.21 0 0 0 .6-3.31 1.07 1.07 0 0 0-.38-.4l-2.17-1.38-13-43a1.06 1.06 0 0 0-.51-.61 1.11 1.11 0 0 0-.8-.06c-.89.31-3.85 1.38-4.72 2.46-.68.85-1 3.14-1.11 4.09a1 1 0 0 0 0 .42l7.9 25a1 1 0 0 0 1.24.68l2.06-.55 2.61 7.57L31.13 35A97.28 97.28 0 0 1 22 27.82c-5-4.28-8.17-6.91-9.93-7.15-1.59-.21-3 1.47-3.67 2.49-.94 1.41-2.27 4.25-1.29 5.92 1.23 2.06 9.66 8.54 11.27 9.73a143.73 143.73 0 0 0 15.66 9.76l1.2.64c3.9 2.06 7 3.69 10.55 4.43a16.81 16.81 0 0 0 3.21 5.5 13.19 13.19 0 0 0 4.75 2.77 2.08 2.08 0 0 0 .65.09 3 3 0 0 0 2-.68 3.55 3.55 0 0 0 .8-2.32zM40.54 32.54a1 1 0 0 0-1.23-.65l-2 .55-7.57-23.82a10.39 10.39 0 0 1 .64-2.84 10.31 10.31 0 0 1 2.8-1.43L45.2 44q-.45-.27-.9-.57zM35 46.77a145.47 145.47 0 0 1-15.39-9.6c-3.77-2.78-10-7.84-10.73-9.13-.23-.4.13-2.07 1.2-3.7.92-1.34 1.58-1.66 1.74-1.64 1.25.17 5.48 3.77 8.87 6.67a98.06 98.06 0 0 0 9.31 7.4l12.78 8.16a1.22 1.22 0 0 0 .19.12l3.35 2.15 2.16 1.38a1.44 1.44 0 0 1-.38 1c-.29.36-.55.72-.8 1a10.8 10.8 0 0 1-.88 1.1c-3.35-.65-6.42-2.27-10.28-4.31zm20 13.09a2.62 2.62 0 0 1-.58.1 11 11 0 0 1-3.91-2.26 14.19 14.19 0 0 1-2.61-4.45 5.08 5.08 0 0 0 .48-.53 23.92 23.92 0 0 0 2.32 4 8.81 8.81 0 0 0 3.2 2.13c.44.2.86.4 1.26.61a3.64 3.64 0 0 1-.16.4z"></path></g><!----><g data-v-423bf9ae="" id="948b7e44-b018-494b-9a36-32c92eb94382" fill="#000000" transform="matrix(1.8195966586963697,0,0,1.8195966586963697,95.0160903842216,49.62830061036396)"><path d="M0.35 13.60L0.35 13.60L0.55 11.66L0.88 11.71L1.07 13.21L1.07 13.21Q1.30 13.64 1.83 13.89L1.83 13.89L1.83 13.89Q2.36 14.14 2.96 14.14L2.96 14.14L2.96 14.14Q3.64 14.14 4.12 13.74L4.12 13.74L4.12 13.74Q4.60 13.33 4.60 12.61L4.60 12.61L4.60 12.61Q4.60 12.20 4.39 11.83L4.39 11.83L4.39 11.83Q4.17 11.46 3.82 11.18L3.82 11.18L3.82 11.18Q3.48 10.90 3.06 10.63L3.06 10.63L3.06 10.63Q2.64 10.36 2.22 10.07L2.22 10.07L2.22 10.07Q1.80 9.79 1.46 9.48L1.46 9.48L1.46 9.48Q1.11 9.17 0.90 8.75L0.90 8.75L0.90 8.75Q0.68 8.33 0.68 7.84L0.68 7.84L0.68 7.84Q0.68 6.88 1.38 6.29L1.38 6.29L1.38 6.29Q2.07 5.71 2.95 5.71L2.95 5.71L2.95 5.71Q3.54 5.71 4.08 5.90L4.08 5.90L4.08 5.90Q4.62 6.09 4.95 6.46L4.95 6.46L4.72 8.58L4.41 8.53L4.22 6.87L4.22 6.87Q4.04 6.54 3.62 6.32L3.62 6.32L3.62 6.32Q3.21 6.10 2.78 6.10L2.78 6.10L2.78 6.10Q2.18 6.10 1.77 6.48L1.77 6.48L1.77 6.48Q1.35 6.87 1.35 7.52L1.35 7.52L1.35 7.52Q1.35 7.96 1.58 8.35L1.58 8.35L1.58 8.35Q1.80 8.74 2.15 9.03L2.15 9.03L2.15 9.03Q2.50 9.32 2.93 9.61L2.93 9.61L2.93 9.61Q3.35 9.89 3.78 10.17L3.78 10.17L3.78 10.17Q4.20 10.45 4.56 10.75L4.56 10.75L4.56 10.75Q4.91 11.05 5.13 11.45L5.13 11.45L5.13 11.45Q5.35 11.85 5.35 12.29L5.35 12.29L5.35 12.29Q5.35 13.28 4.60 13.93L4.60 13.93L4.60 13.93Q3.85 14.57 2.60 14.57L2.60 14.57L2.60 14.57Q1.89 14.57 1.29 14.30L1.29 14.30L1.29 14.30Q0.69 14.03 0.35 13.60ZM14.29 6.33L13.06 6.16L13.08 5.89L16.20 5.89L16.17 6.16L15.01 6.32L15.01 9.95L19.92 9.95L19.92 6.33L18.66 6.16L18.71 5.89L21.82 5.89L21.77 6.16L20.62 6.32L20.62 13.95L21.88 14.08L21.83 14.40L18.73 14.40L18.79 14.11L19.92 13.90L19.92 10.36L15.01 10.36L15.01 13.95L16.28 14.08L16.21 14.40L13.12 14.40L13.15 14.11L14.29 13.90L14.29 6.33ZM33.65 6.98L32.28 10.75L34.97 10.75L33.65 6.98ZM32.33 14.40L29.60 14.40L29.63 14.11L30.60 13.90L33.60 5.82L33.96 5.73L36.80 13.95L37.70 14.08L37.65 14.39L34.85 14.39L34.91 14.10L36.05 13.90L35.10 11.13L32.14 11.13L31.13 13.95L32.39 14.08L32.33 14.40ZM46.38 6.34L45.37 6.14L45.40 5.89L48.30 5.89L48.27 6.14L47.12 6.32L49.49 13.30L52.06 6.34L50.79 6.14L50.81 5.89L53.48 5.89L53.45 6.14L52.57 6.32L49.55 14.47L49.21 14.57L46.38 6.34ZM62.40 6.36L61.17 6.18L61.22 5.89L67.42 5.89L67.20 8.07L66.89 8.03L66.76 6.24L63.11 6.24L63.11 9.89L65.40 9.89L65.65 8.94L66.02 8.89L65.80 11.55L65.45 11.61L65.34 10.26L63.11 10.26L63.11 14.03L66.95 14.03L67.46 12.19L67.74 12.26L67.53 14.40L61.20 14.40L61.24 14.11L62.40 13.90L62.40 6.36ZM87.04 7.38L87.04 7.38L87.04 7.38Q87.04 8.09 88.09 9.40L88.09 9.40L88.09 9.40Q88.74 8.91 89.09 8.48L89.09 8.48L89.09 8.48Q89.43 8.05 89.43 7.56L89.43 7.56L89.43 7.56Q89.43 6.97 89.07 6.54L89.07 6.54L89.07 6.54Q88.70 6.11 88.19 6.11L88.19 6.11L88.19 6.11Q87.68 6.11 87.36 6.49L87.36 6.49L87.36 6.49Q87.04 6.87 87.04 7.38ZM86.13 12.48L86.13 12.48L86.13 12.48Q86.13 13.09 86.56 13.52L86.56 13.52L86.56 13.52Q86.99 13.95 87.62 13.95L87.62 13.95L87.62 13.95Q88.78 13.95 89.76 12.41L89.76 12.41L87.82 10.14L87.80 10.14L87.80 10.14Q87.41 10.44 87.15 10.66L87.15 10.66L87.15 10.66Q86.90 10.88 86.64 11.18L86.64 11.18L86.64 11.18Q86.38 11.47 86.25 11.80L86.25 11.80L86.25 11.80Q86.13 12.12 86.13 12.48ZM85.36 12.74L85.36 12.74L85.36 12.74Q85.36 12.36 85.50 12.00L85.50 12.00L85.50 12.00Q85.63 11.63 85.81 11.38L85.81 11.38L85.81 11.38Q85.98 11.12 86.33 10.79L86.33 10.79L86.33 10.79Q86.67 10.47 86.89 10.29L86.89 10.29L86.89 10.29Q87.11 10.12 87.53 9.80L87.53 9.80L87.53 9.80Q86.50 8.55 86.50 7.73L86.50 7.73L86.50 7.73Q86.50 6.91 87.04 6.31L87.04 6.31L87.04 6.31Q87.58 5.70 88.38 5.70L88.38 5.70L88.38 5.70Q89.17 5.70 89.64 6.17L89.64 6.17L89.64 6.17Q90.11 6.63 90.11 7.42L90.11 7.42L90.11 7.42Q90.11 7.70 90.01 7.97L90.01 7.97L90.01 7.97Q89.91 8.24 89.77 8.46L89.77 8.46L89.77 8.46Q89.63 8.67 89.37 8.91L89.37 8.91L89.37 8.91Q89.12 9.15 88.92 9.32L88.92 9.32L88.92 9.32Q88.71 9.49 88.38 9.73L88.38 9.73L88.38 9.75L90.13 11.76L91.41 9.47L90.31 9.26L90.32 9.02L93.17 9.02L93.13 9.26L91.98 9.45L90.46 12.13L90.46 12.13Q91.67 13.71 92.82 14.08L92.82 14.08L93.13 14.16L93.08 14.42L93.08 14.42Q92.75 14.53 92.46 14.53L92.46 14.53L92.46 14.53Q92.00 14.53 91.54 14.26L91.54 14.26L91.54 14.26Q91.09 13.98 90.77 13.60L90.77 13.60L90.07 12.78L90.07 12.78Q89.88 13.07 89.69 13.30L89.69 13.30L89.69 13.30Q89.50 13.53 89.24 13.77L89.24 13.77L89.24 13.77Q88.98 14.01 88.70 14.17L88.70 14.17L88.70 14.17Q88.42 14.33 88.07 14.43L88.07 14.43L88.07 14.43Q87.71 14.53 87.32 14.53L87.32 14.53L87.32 14.53Q86.43 14.53 85.90 14.02L85.90 14.02L85.90 14.02Q85.36 13.50 85.36 12.74ZM110.76 10.25L110.76 10.25L110.76 10.25Q110.76 9.73 110.86 9.21L110.86 9.21L110.86 9.21Q110.97 8.68 111.17 8.17L111.17 8.17L111.17 8.17Q111.37 7.66 111.70 7.22L111.70 7.22L111.70 7.22Q112.03 6.77 112.44 6.44L112.44 6.44L112.44 6.44Q112.85 6.10 113.41 5.90L113.41 5.90L113.41 5.90Q113.97 5.71 114.60 5.71L114.60 5.71L114.60 5.71Q116.02 5.71 116.93 6.39L116.93 6.39L116.72 8.70L116.40 8.64L116.19 6.87L116.19 6.87Q115.60 6.09 114.28 6.09L114.28 6.09L114.28 6.09Q113.13 6.09 112.31 7.19L112.31 7.19L112.31 7.19Q111.48 8.30 111.48 10.00L111.48 10.00L111.48 10.00Q111.48 11.92 112.28 12.97L112.28 12.97L112.28 12.97Q113.09 14.03 114.56 14.03L114.56 14.03L114.56 14.03Q115.29 14.03 115.99 13.65L115.99 13.65L115.99 13.65Q116.68 13.28 117.15 12.74L117.15 12.74L117.30 12.99L117.30 12.99Q117.13 13.25 116.85 13.51L116.85 13.51L116.85 13.51Q116.56 13.77 116.17 14.02L116.17 14.02L116.17 14.02Q115.79 14.27 115.28 14.42L115.28 14.42L115.28 14.42Q114.78 14.57 114.25 14.57L114.25 14.57L114.25 14.57Q112.68 14.57 111.72 13.40L111.72 13.40L111.72 13.40Q110.76 12.22 110.76 10.25ZM126.19 6.33L124.95 6.16L124.98 5.89L128.08 5.89L128.06 6.16L126.90 6.32L126.90 11.01L126.90 11.01Q126.90 11.87 127.08 12.49L127.08 12.49L127.08 12.49Q127.26 13.10 127.61 13.45L127.61 13.45L127.61 13.45Q127.96 13.79 128.41 13.95L128.41 13.95L128.41 13.95Q128.86 14.11 129.45 14.11L129.45 14.11L129.45 14.11Q130.62 14.11 131.26 13.40L131.26 13.40L131.26 13.40Q131.91 12.68 131.91 11.33L131.91 11.33L131.91 6.33L130.63 6.16L130.67 5.89L133.57 5.89L133.52 6.16L132.38 6.32L132.36 11.05L132.36 11.05Q132.36 12.78 131.62 13.68L131.62 13.68L131.62 13.68Q130.88 14.58 129.22 14.58L129.22 14.58L129.22 14.58Q128.72 14.58 128.30 14.49L128.30 14.49L128.30 14.49Q127.87 14.40 127.48 14.16L127.48 14.16L127.48 14.16Q127.08 13.93 126.80 13.56L126.80 13.56L126.80 13.56Q126.53 13.19 126.36 12.60L126.36 12.60L126.36 12.60Q126.19 12.01 126.19 11.24L126.19 11.24L126.19 6.33ZM141.32 8.09L141.25 5.89L148.31 5.89L148.07 8.16L147.73 8.12L147.62 6.24L145.08 6.24L145.08 13.90L146.29 14.08L146.21 14.40L143.12 14.40L143.15 14.11L144.35 13.90L144.35 6.24L141.91 6.24L141.67 8.15L141.32 8.09Z"></path></g></svg>