<svg data-v-423bf9ae="" xmlns="http://www.w3.org/2000/svg" viewBox="0 0 50.435303513107456 60" class="icon"><!----><!----><!----><!----><g data-v-423bf9ae="" id="425eb291-fd6c-44a2-9f97-85ac52af1240" transform="matrix(1.0000090917778095,0,0,1.0000090917778095,-6.765981588972789,-2.0021050803519245)" stroke="none" fill="white"><path d="M57.2 59a1.36 1.36 0 0 0-.6-1 16.8 16.8 0 0 0-1.88-1 7.17 7.17 0 0 1-2.5-1.59 28.69 28.69 0 0 1-2.49-4.53l.05-.07a3.21 3.21 0 0 0 .6-3.31 1.07 1.07 0 0 0-.38-.4l-2.17-1.38-13-43a1.06 1.06 0 0 0-.51-.61 1.11 1.11 0 0 0-.8-.06c-.89.31-3.85 1.38-4.72 2.46-.68.85-1 3.14-1.11 4.09a1 1 0 0 0 0 .42l7.9 25a1 1 0 0 0 1.24.68l2.06-.55 2.61 7.57L31.13 35A97.28 97.28 0 0 1 22 27.82c-5-4.28-8.17-6.91-9.93-7.15-1.59-.21-3 1.47-3.67 2.49-.94 1.41-2.27 4.25-1.29 5.92 1.23 2.06 9.66 8.54 11.27 9.73a143.73 143.73 0 0 0 15.66 9.76l1.2.64c3.9 2.06 7 3.69 10.55 4.43a16.81 16.81 0 0 0 3.21 5.5 13.19 13.19 0 0 0 4.75 2.77 2.08 2.08 0 0 0 .65.09 3 3 0 0 0 2-.68 3.55 3.55 0 0 0 .8-2.32zM40.54 32.54a1 1 0 0 0-1.23-.65l-2 .55-7.57-23.82a10.39 10.39 0 0 1 .64-2.84 10.31 10.31 0 0 1 2.8-1.43L45.2 44q-.45-.27-.9-.57zM35 46.77a145.47 145.47 0 0 1-15.39-9.6c-3.77-2.78-10-7.84-10.73-9.13-.23-.4.13-2.07 1.2-3.7.92-1.34 1.58-1.66 1.74-1.64 1.25.17 5.48 3.77 8.87 6.67a98.06 98.06 0 0 0 9.31 7.4l12.78 8.16a1.22 1.22 0 0 0 .19.12l3.35 2.15 2.16 1.38a1.44 1.44 0 0 1-.38 1c-.29.36-.55.72-.8 1a10.8 10.8 0 0 1-.88 1.1c-3.35-.65-6.42-2.27-10.28-4.31zm20 13.09a2.62 2.62 0 0 1-.58.1 11 11 0 0 1-3.91-2.26 14.19 14.19 0 0 1-2.61-4.45 5.08 5.08 0 0 0 .48-.53 23.92 23.92 0 0 0 2.32 4 8.81 8.81 0 0 0 3.2 2.13c.44.2.86.4 1.26.61a3.64 3.64 0 0 1-.16.4z"></path></g><!----></svg>